# xmcd CD database file
#
# Track frame offsets:
#	150
#	11744
#	23154
#	35140
#	48222
#	67972
#	81799
#	93698
#	108371
#	122135
#	135945
#
# Disc length: 1993 seconds
#
# Revision: 0
# Processed by: cddbd v1.5.2PL0 Copyright (c) Steve Scherf et al.
# Submitted via: CDex 1.70beta2
#
DISCID=8a07c70b
DTITLE=Allen Christie - The Last Rodeo
DYEAR=2000
DGENRE=Country
TTITLE0=Border Line
TTITLE1=Close One
TTITLE2=P.U.M.B.H.
TTITLE3=You Wouldn't Love Me
TTITLE4=The Last Rodeo
TTITLE5=For All Time
TTITLE6=On
TTITLE7=Destiny
TTITLE8=Six Piece Band
TTITLE9=Nothing To Say
TTITLE10=Just The Way Love Goes
EXTD=YEAR: 2000
EXTT0=
EXTT1=
EXTT2=
EXTT3=
EXTT4=
EXTT5=
EXTT6=
EXTT7=
EXTT8=
EXTT9=
EXTT10=
PLAYORDER=
